<svg xmlns="http://www.w3.org/2000/svg" fill="none" viewBox="0 0 678 92"><path d="M631.016 91.913h-28.898L555.626 0h27.694l33.448 69.169L650.148 0h27.694l-46.826 91.913Zm-179.679 0V0h93.051v19.6h-67.564v15.185h64.085v19.6h-64.085v17.928h68.5v19.6h-93.987ZM428.66 45.89c0 5.886-.646 11.126-1.94 15.72-1.293 4.549-3.122 8.518-5.485 11.907a34.46 34.46 0 0 1-8.429 8.63c-3.255 2.363-6.89 4.258-10.904 5.685-4.013 1.428-8.339 2.476-12.977 3.145-4.638.624-9.477.936-14.516.936h-58.332V0h58.198c5.039 0 9.878.334 14.516 1.003 4.638.625 8.964 1.65 12.978 3.078 4.058 1.427 7.737 3.322 11.037 5.686 3.3 2.319 6.11 5.195 8.429 8.629 2.363 3.39 4.192 7.358 5.485 11.907 1.294 4.55 1.94 9.744 1.94 15.587Zm-25.018 0c0-4.415-.58-8.25-1.74-11.506-1.115-3.256-2.943-5.931-5.485-8.028-2.497-2.14-5.775-3.723-9.834-4.75-4.058-1.07-9.008-1.605-14.85-1.605h-30.838v51.91h30.838c5.842 0 10.792-.512 14.85-1.538 4.059-1.07 7.337-2.676 9.834-4.816 2.542-2.186 4.37-4.906 5.485-8.162 1.16-3.255 1.74-7.09 1.74-11.505ZM225.568 0l23.48 63.817L274.468 0h25.755l-36.926 91.913h-27.561l-24.015-61.81-23.948 61.81h-27.561L123.22 0h25.821l24.885 62.48 12.007-31.24L197.941 0h27.627ZM87.565 74.52H36.324l-8.63 17.393H0L48.097 0h27.694l48.098 91.913H96.194l-8.63-17.392ZM45.22 56.593H78.8L62.079 22.744 45.221 56.593Z" fill="#F3F3F3"/></svg>