<svg width="109" height="10" viewBox="0 0 109 10" fill="none" xmlns="http://www.w3.org/2000/svg">
<path d="M0 9.8188H3.4373V6.1529H9.0652V9.8188H12.4903V0.181396H9.0652V3.5882H3.4373V0.181396H0V9.8188Z" fill="white"/>
<path d="M18.3595 9.8188H21.7968V6.2177L26.6138 0.181396H22.8497L20.175 3.5105L17.5486 0.181396H13.4336L18.3595 6.1918V9.8188Z" fill="white"/>
<path d="M27.5557 9.8188H33.9582C39.3199 9.8188 40.4454 7.3188 40.4454 5.1296V4.741C40.4454 2.4742 39.1383 0.181396 33.9461 0.181396H27.5557V9.8188ZM30.993 2.7074H33.5467C36.5483 2.7074 36.875 4.0934 36.875 4.9353V5.0131C36.875 5.855 36.5483 7.2669 33.5467 7.2669H30.993V2.7074Z" fill="white"/>
<path d="M45.3084 2.526H49.254C50.0289 2.526 50.2949 2.8887 50.2949 3.3421V3.355C50.2949 3.8213 50.0169 4.184 49.254 4.184H45.3084V2.526ZM45.3084 6.5156H48.6004C49.9559 6.5156 50.4279 7.0856 50.4279 8.1866V9.3136C50.4279 9.5856 50.4519 9.7151 50.5369 9.8188H54.0469V9.754C53.9619 9.5856 53.8769 9.3395 53.8769 8.6659V7.241C53.8769 5.9975 53.1389 5.2203 52.0259 4.9483C52.7029 4.7799 53.8409 4.197 53.8409 2.798V2.6555C53.8409 1.0882 52.6789 0.181396 50.0529 0.181396H41.8711V9.8188H45.3084V6.5156Z" fill="white"/>
<path d="M61.6521 0C55.8191 0 55.0811 2.9663 55.0811 4.7798V5.1684C55.0811 6.9689 55.8191 10 61.6521 10H62.1971C68.0191 10 68.7571 6.9689 68.7571 5.1684V4.7798C68.7571 2.9663 68.0071 0 62.1971 0H61.6521ZM65.1991 5.0518C65.1991 6.0881 64.5811 7.3964 61.9191 7.3964C59.2561 7.3964 58.6391 6.0363 58.6391 5.0259V4.8705C58.6391 3.8472 59.2081 2.5907 61.9191 2.5907C64.5811 2.5907 65.1991 3.8472 65.1991 4.8705V5.0518Z" fill="white"/>
<path d="M76.27 10C79.078 10 80.204 8.899 80.555 8.4845C80.724 8.8342 80.918 9.5078 80.978 9.8187H83.145V4.3912H76.476V6.2694H79.635C79.635 6.5803 78.884 7.4741 76.561 7.4741C74.334 7.4741 73.474 6.2694 73.474 5.0389V4.8964C73.474 3.6269 74.164 2.513 76.585 2.513C79.127 2.513 79.441 3.4845 79.502 3.7306H83.084V3.7176C83.036 2.3705 82.285 0 76.766 0H76.294C70.981 0 69.916 2.7073 69.916 4.7798V5.1425C69.916 7.1762 71.066 10 75.992 10H76.27Z" fill="white"/>
<path d="M84.8525 0.181396V9.8188H94.9105V7.4094H88.2415V6.0882H94.6805V3.7436H88.2415V2.539H94.8135V0.181396H84.8525Z" fill="white"/>
<path d="M96.5098 0.181396V9.8188H99.9228V3.9768L105.563 9.8188H109V0.181396H105.587V5.6607L100.358 0.181396H96.5098Z" fill="white"/>
</svg>
