<svg width="27" height="30" viewBox="0 0 27 30" fill="none" xmlns="http://www.w3.org/2000/svg">
<path d="M18.7285 29.9275L26.2497 28.0403C26.2497 28.0403 23.0115 5.93543 22.9909 5.78379C22.9702 5.63215 22.839 5.54799 22.7301 5.53883C22.622 5.52966 20.5044 5.49717 20.5044 5.49717C20.5044 5.49717 19.2138 4.23153 18.7285 3.75244V29.9275Z" fill="white"/>
<path d="M17.9101 3.49998C17.9101 3.49998 17.5776 3.60413 17.0205 3.77827C16.9273 3.47332 16.7903 3.09838 16.5947 2.72177C15.9642 1.50696 15.0408 0.864563 13.9251 0.862896H13.9209C13.8434 0.862896 13.7666 0.870395 13.689 0.877061C13.656 0.837067 13.623 0.797907 13.5884 0.759579C13.1023 0.234661 12.4792 -0.0211319 11.7324 0.00136454C10.2915 0.0430247 8.85645 1.09369 7.69287 2.96007C6.87423 4.2732 6.25118 5.92294 6.07458 7.20024C4.41997 7.71766 3.26299 8.07927 3.23741 8.0876C2.40227 8.35256 2.37586 8.37839 2.26693 9.17326C2.18523 9.774 0 26.8347 0 26.8347L18.1297 30V3.46249C18.0405 3.46832 17.9605 3.48499 17.9101 3.49998ZM13.7237 4.80895C12.764 5.1089 11.7167 5.43635 10.6662 5.76463C10.9616 4.62231 11.522 3.48499 12.2102 2.73927C12.466 2.46181 12.8242 2.15269 13.2484 1.97606C13.647 2.81592 13.7336 4.0049 13.7237 4.80895ZM11.7605 0.969546C12.0988 0.962048 12.3835 1.03704 12.627 1.19868C12.2375 1.40281 11.8611 1.6961 11.5079 2.07854C10.5928 3.07005 9.8913 4.60898 9.61155 6.09374C8.73927 6.3662 7.88597 6.63366 7.10035 6.87862C7.59632 4.54149 9.53645 1.03454 11.7605 0.969546ZM8.95713 14.2833C9.05451 15.8406 13.1122 16.1805 13.34 19.8283C13.519 22.6978 11.8323 24.6608 9.40194 24.8158C6.48472 25.0016 4.87881 23.2636 4.87881 23.2636L5.49691 20.6081C5.49691 20.6081 7.11355 21.8396 8.40752 21.7571C9.25257 21.703 9.55461 21.0089 9.52407 20.5182C9.39699 18.4868 6.09273 18.6068 5.88395 15.269C5.70817 12.4602 7.53525 9.61403 11.5665 9.3574C13.1196 9.25825 13.9152 9.65902 13.9152 9.65902L12.9934 13.141C12.9934 13.141 11.9651 12.6685 10.7462 12.746C8.95796 12.8602 8.93898 13.9983 8.95713 14.2833ZM14.6818 4.50983C14.6711 3.77327 14.5844 2.74843 14.2444 1.86274C15.3379 2.07187 15.8759 3.32085 16.1037 4.06573C15.682 4.19654 15.2017 4.34652 14.6818 4.50983Z" fill="white"/>
</svg>
